<mxfile host="app.diagrams.net" agent="Mozilla/5.0 (Windows NT 10.0; Win64; x64) AppleWebKit/537.36 (KHTML, like Gecko) Chrome/131.0.0.0 Safari/537.36" version="24.8.6">
  <diagram name="Use Case Diagram" id="594Dj1rOKYFjjq_zmriM">
    <mxGraphModel dx="1434" dy="744" grid="1" gridSize="10" guides="1" tooltips="1" connect="1" arrows="1" fold="1" page="1" pageScale="1" pageWidth="827" pageHeight="1169" math="0" shadow="0">
      <root>
        <mxCell id="0" />
        <mxCell id="1" parent="0" />
        <mxCell id="Q6bBEtiKk_yKLnC49eO--36" value="" style="edgeStyle=orthogonalEdgeStyle;rounded=0;orthogonalLoop=1;jettySize=auto;html=1;" edge="1" parent="1" source="Q6bBEtiKk_yKLnC49eO--15" target="Q6bBEtiKk_yKLnC49eO--16">
          <mxGeometry relative="1" as="geometry" />
        </mxCell>
        <mxCell id="Q6bBEtiKk_yKLnC49eO--15" value="&lt;div&gt;&lt;br&gt;&lt;/div&gt;&lt;div&gt;&lt;br&gt;&lt;/div&gt;&lt;div&gt;&lt;b&gt;USER&lt;/b&gt;&lt;/div&gt;" style="shape=actor;whiteSpace=wrap;html=1;" vertex="1" parent="1">
          <mxGeometry x="377" y="10" width="100" height="110" as="geometry" />
        </mxCell>
        <mxCell id="Q6bBEtiKk_yKLnC49eO--32" value="" style="edgeStyle=orthogonalEdgeStyle;rounded=0;orthogonalLoop=1;jettySize=auto;html=1;" edge="1" parent="1" source="Q6bBEtiKk_yKLnC49eO--16" target="Q6bBEtiKk_yKLnC49eO--31">
          <mxGeometry relative="1" as="geometry" />
        </mxCell>
        <mxCell id="Q6bBEtiKk_yKLnC49eO--34" value="" style="edgeStyle=orthogonalEdgeStyle;rounded=0;orthogonalLoop=1;jettySize=auto;html=1;" edge="1" parent="1" source="Q6bBEtiKk_yKLnC49eO--16" target="Q6bBEtiKk_yKLnC49eO--33">
          <mxGeometry relative="1" as="geometry" />
        </mxCell>
        <mxCell id="Q6bBEtiKk_yKLnC49eO--16" value="OR" style="strokeWidth=2;html=1;shape=mxgraph.flowchart.decision;whiteSpace=wrap;" vertex="1" parent="1">
          <mxGeometry x="377" y="190" width="100" height="100" as="geometry" />
        </mxCell>
        <mxCell id="Q6bBEtiKk_yKLnC49eO--38" value="" style="edgeStyle=orthogonalEdgeStyle;rounded=0;orthogonalLoop=1;jettySize=auto;html=1;" edge="1" parent="1" source="Q6bBEtiKk_yKLnC49eO--31" target="Q6bBEtiKk_yKLnC49eO--37">
          <mxGeometry relative="1" as="geometry" />
        </mxCell>
        <mxCell id="Q6bBEtiKk_yKLnC49eO--31" value="&lt;div&gt;&lt;br&gt;&lt;/div&gt;REGISTER ACCOUNT&lt;div&gt;&lt;ul&gt;&lt;li&gt;&lt;span style=&quot;background-color: initial;&quot;&gt;JWT&amp;nbsp; &amp;nbsp; &amp;nbsp; &amp;nbsp; &amp;nbsp; &amp;nbsp; &amp;nbsp;&lt;/span&gt;&lt;/li&gt;&lt;/ul&gt;&lt;/div&gt;" style="ellipse;whiteSpace=wrap;html=1;strokeWidth=2;" vertex="1" parent="1">
          <mxGeometry x="140" y="200" width="147" height="80" as="geometry" />
        </mxCell>
        <mxCell id="Q6bBEtiKk_yKLnC49eO--33" value="LOGIN&lt;div&gt;&lt;ul&gt;&lt;li&gt;EMAIL &amp;amp; PASSWORD&lt;/li&gt;&lt;li&gt;OAUTH&lt;/li&gt;&lt;/ul&gt;&lt;/div&gt;" style="ellipse;whiteSpace=wrap;html=1;strokeWidth=2;" vertex="1" parent="1">
          <mxGeometry x="562" y="200" width="163" height="80" as="geometry" />
        </mxCell>
        <mxCell id="Q6bBEtiKk_yKLnC49eO--57" style="edgeStyle=orthogonalEdgeStyle;rounded=0;orthogonalLoop=1;jettySize=auto;html=1;" edge="1" parent="1" source="Q6bBEtiKk_yKLnC49eO--37" target="Q6bBEtiKk_yKLnC49eO--56">
          <mxGeometry relative="1" as="geometry">
            <Array as="points">
              <mxPoint x="214" y="480" />
            </Array>
          </mxGeometry>
        </mxCell>
        <mxCell id="Q6bBEtiKk_yKLnC49eO--37" value="UPDATE DETAILS&lt;div&gt;&lt;ul&gt;&lt;li&gt;&lt;br&gt;&lt;/li&gt;&lt;/ul&gt;&lt;/div&gt;" style="shape=parallelogram;html=1;strokeWidth=2;perimeter=parallelogramPerimeter;whiteSpace=wrap;rounded=1;arcSize=12;size=0.23;" vertex="1" parent="1">
          <mxGeometry x="137.75" y="330" width="151.5" height="100" as="geometry" />
        </mxCell>
        <mxCell id="Q6bBEtiKk_yKLnC49eO--73" style="edgeStyle=orthogonalEdgeStyle;rounded=0;orthogonalLoop=1;jettySize=auto;html=1;exitX=0.5;exitY=1;exitDx=0;exitDy=0;exitPerimeter=0;entryX=0.5;entryY=0;entryDx=0;entryDy=0;" edge="1" parent="1" source="Q6bBEtiKk_yKLnC49eO--39" target="Q6bBEtiKk_yKLnC49eO--44">
          <mxGeometry relative="1" as="geometry" />
        </mxCell>
        <mxCell id="Q6bBEtiKk_yKLnC49eO--39" value="SEARCH" style="strokeWidth=2;html=1;shape=mxgraph.flowchart.merge_or_storage;whiteSpace=wrap;" vertex="1" parent="1">
          <mxGeometry x="118.5" y="890" width="190" height="130" as="geometry" />
        </mxCell>
        <mxCell id="Q6bBEtiKk_yKLnC49eO--47" value="" style="edgeStyle=orthogonalEdgeStyle;rounded=0;orthogonalLoop=1;jettySize=auto;html=1;" edge="1" parent="1" source="Q6bBEtiKk_yKLnC49eO--44" target="Q6bBEtiKk_yKLnC49eO--46">
          <mxGeometry relative="1" as="geometry" />
        </mxCell>
        <mxCell id="Q6bBEtiKk_yKLnC49eO--44" value="BOOK PROPERTY" style="ellipse;whiteSpace=wrap;html=1;strokeWidth=2;" vertex="1" parent="1">
          <mxGeometry x="93.5" y="1090" width="240" height="110" as="geometry" />
        </mxCell>
        <mxCell id="Q6bBEtiKk_yKLnC49eO--46" value="PROCESS PAYMENT" style="ellipse;whiteSpace=wrap;html=1;strokeWidth=2;" vertex="1" parent="1">
          <mxGeometry x="93.5" y="1280" width="240" height="110" as="geometry" />
        </mxCell>
        <mxCell id="Q6bBEtiKk_yKLnC49eO--48" value="ADD LISTINGS" style="strokeWidth=2;html=1;shape=mxgraph.flowchart.database;whiteSpace=wrap;" vertex="1" parent="1">
          <mxGeometry x="603.25" y="890" width="120" height="130" as="geometry" />
        </mxCell>
        <mxCell id="Q6bBEtiKk_yKLnC49eO--68" style="edgeStyle=orthogonalEdgeStyle;rounded=0;orthogonalLoop=1;jettySize=auto;html=1;exitX=1;exitY=1;exitDx=0;exitDy=0;exitPerimeter=0;" edge="1" parent="1" source="Q6bBEtiKk_yKLnC49eO--55" target="Q6bBEtiKk_yKLnC49eO--63">
          <mxGeometry relative="1" as="geometry" />
        </mxCell>
        <mxCell id="Q6bBEtiKk_yKLnC49eO--69" style="edgeStyle=orthogonalEdgeStyle;rounded=0;orthogonalLoop=1;jettySize=auto;html=1;exitX=1;exitY=0;exitDx=0;exitDy=0;exitPerimeter=0;" edge="1" parent="1" source="Q6bBEtiKk_yKLnC49eO--55" target="Q6bBEtiKk_yKLnC49eO--65">
          <mxGeometry relative="1" as="geometry" />
        </mxCell>
        <mxCell id="Q6bBEtiKk_yKLnC49eO--55" value="" style="strokeWidth=2;html=1;shape=mxgraph.flowchart.annotation_2;align=left;labelPosition=right;pointerEvents=1;rotation=90;" vertex="1" parent="1">
          <mxGeometry x="381" y="400" width="116" height="450" as="geometry" />
        </mxCell>
        <mxCell id="Q6bBEtiKk_yKLnC49eO--56" value="" style="strokeWidth=2;html=1;shape=mxgraph.flowchart.decision;whiteSpace=wrap;" vertex="1" parent="1">
          <mxGeometry x="389.75" y="575" width="100" height="100" as="geometry" />
        </mxCell>
        <mxCell id="Q6bBEtiKk_yKLnC49eO--61" style="edgeStyle=orthogonalEdgeStyle;rounded=0;orthogonalLoop=1;jettySize=auto;html=1;" edge="1" parent="1" source="Q6bBEtiKk_yKLnC49eO--33">
          <mxGeometry relative="1" as="geometry">
            <mxPoint x="440" y="567" as="targetPoint" />
            <Array as="points">
              <mxPoint x="644" y="480" />
              <mxPoint x="439" y="480" />
            </Array>
          </mxGeometry>
        </mxCell>
        <mxCell id="Q6bBEtiKk_yKLnC49eO--70" style="edgeStyle=orthogonalEdgeStyle;rounded=0;orthogonalLoop=1;jettySize=auto;html=1;" edge="1" parent="1" source="Q6bBEtiKk_yKLnC49eO--63" target="Q6bBEtiKk_yKLnC49eO--39">
          <mxGeometry relative="1" as="geometry" />
        </mxCell>
        <mxCell id="Q6bBEtiKk_yKLnC49eO--63" value="" style="shape=actor;whiteSpace=wrap;html=1;" vertex="1" parent="1">
          <mxGeometry x="170.25" y="720" width="86.5" height="100" as="geometry" />
        </mxCell>
        <mxCell id="Q6bBEtiKk_yKLnC49eO--65" value="" style="shape=actor;whiteSpace=wrap;html=1;" vertex="1" parent="1">
          <mxGeometry x="620" y="720" width="86.5" height="100" as="geometry" />
        </mxCell>
        <mxCell id="Q6bBEtiKk_yKLnC49eO--72" style="edgeStyle=orthogonalEdgeStyle;rounded=0;orthogonalLoop=1;jettySize=auto;html=1;exitX=0.5;exitY=1;exitDx=0;exitDy=0;entryX=0.5;entryY=0;entryDx=0;entryDy=0;entryPerimeter=0;" edge="1" parent="1" source="Q6bBEtiKk_yKLnC49eO--65" target="Q6bBEtiKk_yKLnC49eO--48">
          <mxGeometry relative="1" as="geometry" />
        </mxCell>
      </root>
    </mxGraphModel>
  </diagram>
</mxfile>
